<svg height="464pt" viewBox="0 0 464 464" width="464pt" xmlns="http://www.w3.org/2000/svg"><path d="m128.601562 298.71875c-5.554687 5.746094-8.601562 13.28125-8.601562 21.28125s3.046875 15.535156 8.601562 21.28125l16.824219-13.457031c-.867187-2.464844-1.425781-5.070313-1.425781-7.824219s.558594-5.359375 1.414062-7.824219zm0 0"/><path d="m207.398438 341.28125c5.554687-5.746094 8.601562-13.28125 8.601562-21.28125s-3.046875-15.535156-8.601562-21.28125l-16.824219 13.457031c.867187 2.472657 1.425781 5.070313 1.425781 7.824219s-.558594 5.359375-1.414062 7.824219zm0 0"/><path d="m168 296c4.640625 0 8.9375 1.382812 12.609375 3.671875l27.390625-21.910156v-7.472657c-12.015625 6.160157-25.59375 9.710938-40 9.710938s-27.984375-3.550781-40-9.710938v7.472657l27.390625 21.910156c3.671875-2.289063 7.96875-3.671875 12.609375-3.671875zm0 0"/><path d="m240 192v-48.375c-14.03125-1.761719-26.28125-10.289062-32.726562-23.191406-2.601563-5.203125-7.824219-8.433594-13.640626-8.433594-4.007812 0-7.945312 1.632812-10.785156 4.464844l-14.847656 14.847656-14.847656-14.847656c-2.839844-2.832032-6.769532-4.464844-10.785156-4.464844-5.816407 0-11.039063 3.230469-13.640626 8.433594-6.445312 12.902344-18.695312 21.429687-32.726562 23.191406v48.375c0 39.695312 32.304688 72 72 72s72-32.304688 72-72zm-112-32c-4.414062 0-8-3.585938-8-8s3.585938-8 8-8 8 3.585938 8 8-3.585938 8-8 8zm40 80c-17.648438 0-32-14.351562-32-32h16c0 8.824219 7.175781 16 16 16s16-7.175781 16-16h16c0 17.648438-14.351562 32-32 32zm40-80c-4.414062 0-8-3.585938-8-8s3.585938-8 8-8 8 3.585938 8 8-3.585938 8-8 8zm0 0"/><path d="m256 190.527344c9.289062-3.3125 16-12.113282 16-22.527344s-6.710938-19.214844-16-22.527344zm0 0"/><path d="m80 112h16v15.390625c7.902344-1.621094 14.703125-6.6875 18.414062-14.117187 5.328126-10.65625 16.042969-17.273438 27.953126-17.273438 8.34375 0 16.191406 3.246094 22.097656 9.152344l3.535156 3.535156 3.535156-3.535156c5.90625-5.90625 13.746094-9.152344 22.097656-9.152344 11.910157 0 22.625 6.617188 27.953126 17.273438 3.710937 7.421874 10.519531 12.496093 18.414062 14.117187v-15.390625h16v16.808594c5.945312 1.207031 11.328125 3.847656 16 7.382812v-54.894531c0-11.679687-7.449219-22.007813-18.527344-25.703125l-2.464844-.824219-9.910156-13.882812c-18.296875-25.597657-47.992187-40.886719-79.457031-40.886719-53.839844 0-97.640625 43.800781-97.640625 97.640625v38.550781c4.671875-3.535156 10.054688-6.175781 16-7.382812zm0 0"/><path d="m290.320312 310.070312-63.753906-11.949218c3.546875 6.65625 5.433594 14.125 5.433594 21.878906 0 12.457031-4.847656 24.167969-13.65625 32.96875l-9.75 9.75-27.984375-22.382812c-1.441406.894531-2.984375 1.617187-4.609375 2.191406v121.472656h96v-104h16v104h48v-98.878906c0-26.9375-19.207031-50.089844-45.679688-55.050782zm-82.320312 129.929688h-16v-16h16zm0-40h-16v-16h16zm0 0"/><path d="m127.40625 362.71875-9.75-9.75c-8.808594-8.800781-13.65625-20.511719-13.65625-32.96875 0-7.753906 1.886719-15.222656 5.433594-21.878906l-63.753906 11.949218c-26.472657 4.960938-45.679688 28.113282-45.679688 55.050782v98.878906h48v-104h16v104h96v-121.472656c-1.625-.574219-3.167969-1.296875-4.609375-2.191406zm0 0"/><path d="m80 190.527344v-45.046875c-9.289062 3.3125-16 12.113281-16 22.527343 0 10.417969 6.710938 19.207032 16 22.519532zm0 0"/><path d="m176 320c0 4.417969-3.582031 8-8 8s-8-3.582031-8-8 3.582031-8 8-8 8 3.582031 8 8zm0 0"/><path d="m376 336v128h16v-128l44.304688-64h-104.609376zm0 0"/><path d="m304 232 16.617188 24h126.765624l16.617188-24zm0 0"/><path d="m424 208c0 8.835938-7.164062 16-16 16s-16-7.164062-16-16 7.164062-16 16-16 16 7.164062 16 16zm0 0"/><path d="m384 224h8v-8c0-22.089844-17.910156-40-40-40h-8v8c0 22.089844 17.910156 40 40 40zm0 0"/></svg>